<svg width="1410" height="130" viewBox="0 0 1410 130" fill="none" xmlns="http://www.w3.org/2000/svg">
<rect x="1200" width="210" height="130" fill="#FDF9F8"/>
<g clip-path="url(#clip0_179_1043)">
<path fill-rule="evenodd" clip-rule="evenodd" d="M1240.33 65.4464L1245.45 60.3207V59.8219H1241.25L1242.03 61.1813L1239.39 63.8376L1235 56.2178H1249.07V61.8173L1244.84 66.045L1245.77 67.6537L1249.97 63.451V63.4759V63.451L1254.17 67.6537L1255.1 66.045L1250.88 61.8173V56.2178H1264.93L1260.54 63.8376L1257.9 61.1937L1258.68 59.8344H1254.48V60.3332L1259.61 65.4588C1258.06 68.1401 1256.5 70.8338 1254.95 73.5151L1249.97 68.5766L1244.98 73.5026C1243.43 70.8214 1241.88 68.1401 1240.33 65.4464Z" fill="#29313D" fill-opacity="0.8"/>
<path d="M1295.65 54.9331L1291.27 70.5967H1287.57L1284.62 59.4352L1281.54 70.5967L1277.86 70.6217L1273.65 54.9331H1277.01L1279.77 67.1049L1282.96 54.9331H1286.47L1289.47 67.03L1292.25 54.9331H1295.65Z" fill="#29313D" fill-opacity="0.8"/>
<path d="M1297.9 56.1552C1297.53 55.806 1297.35 55.3695 1297.35 54.8457C1297.35 54.3219 1297.54 53.8854 1297.9 53.5363C1298.26 53.1746 1298.73 53 1299.28 53C1299.82 53 1300.29 53.1746 1300.66 53.5238C1301.02 53.873 1301.21 54.3095 1301.21 54.8332C1301.21 55.357 1301.02 55.7935 1300.66 56.1427C1300.3 56.4919 1299.84 56.6665 1299.28 56.6665C1298.73 56.679 1298.26 56.5044 1297.9 56.1552ZM1300.83 58.163V70.5967H1297.69V58.163H1300.83Z" fill="#29313D" fill-opacity="0.8"/>
<path d="M1303.86 60.9941C1304.36 60.0213 1305.05 59.2731 1305.92 58.7493C1306.8 58.2255 1307.76 57.9636 1308.82 57.9636C1309.63 57.9636 1310.4 58.1382 1311.12 58.4874C1311.86 58.8366 1312.44 59.3105 1312.87 59.8842V53.9854H1316.06V70.5968H1312.87V68.7511C1312.48 69.3622 1311.93 69.861 1311.23 70.2351C1310.54 70.6093 1309.71 70.7963 1308.79 70.7963C1307.74 70.7963 1306.78 70.522 1305.92 69.9857C1305.05 69.4495 1304.36 68.6887 1303.86 67.7035C1303.37 66.7183 1303.12 65.5959 1303.12 64.3239C1303.12 63.0767 1303.37 61.9668 1303.86 60.9941ZM1312.46 62.4158C1312.16 61.8671 1311.76 61.4555 1311.25 61.1562C1310.74 60.8694 1310.19 60.7197 1309.61 60.7197C1309.03 60.7197 1308.49 60.8569 1307.99 61.1437C1307.49 61.4306 1307.09 61.8421 1306.8 62.3908C1306.48 62.9396 1306.33 63.5881 1306.33 64.3363C1306.33 65.0846 1306.48 65.7331 1306.8 66.3067C1307.11 66.8679 1307.51 67.292 1308 67.5913C1308.5 67.8906 1309.04 68.0402 1309.61 68.0402C1310.2 68.0402 1310.75 67.8906 1311.25 67.6037C1311.76 67.3169 1312.16 66.8929 1312.46 66.3442C1312.76 65.7954 1312.91 65.1469 1312.91 64.3862C1312.91 63.613 1312.76 62.9645 1312.46 62.4158Z" fill="#29313D" fill-opacity="0.8"/>
<path d="M1330.62 65.3216H1321.52C1321.6 66.2195 1321.91 66.9179 1322.47 67.4292C1323.02 67.9405 1323.71 68.1899 1324.52 68.1899C1325.69 68.1899 1326.51 67.6911 1327.01 66.6809H1330.4C1330.04 67.8781 1329.36 68.8633 1328.33 69.6365C1327.31 70.4098 1326.06 70.7964 1324.58 70.7964C1323.38 70.7964 1322.31 70.5345 1321.36 69.9982C1320.41 69.462 1319.67 68.7137 1319.14 67.7409C1318.61 66.7682 1318.34 65.6458 1318.34 64.3738C1318.34 63.0892 1318.61 61.9544 1319.13 60.9816C1319.65 60.0089 1320.39 59.2606 1321.32 58.7368C1322.27 58.2131 1323.36 57.9512 1324.58 57.9512C1325.76 57.9512 1326.82 58.2006 1327.76 58.7119C1328.69 59.2232 1329.42 59.9465 1329.94 60.8819C1330.45 61.8172 1330.72 62.8897 1330.72 64.0994C1330.7 64.5608 1330.68 64.9599 1330.62 65.3216ZM1327.45 63.214C1327.44 62.4033 1327.14 61.7548 1326.57 61.2685C1326 60.7821 1325.32 60.5452 1324.49 60.5452C1323.72 60.5452 1323.06 60.7821 1322.53 61.256C1322 61.7299 1321.67 62.3784 1321.56 63.2264H1327.45V63.214Z" fill="#29313D" fill-opacity="0.8"/>
<path d="M1340.32 58.5124C1341.02 58.874 1341.58 59.3479 1341.98 59.9341V58.1632H1345.14V70.6841C1345.14 71.8314 1344.91 72.8665 1344.45 73.7769C1343.98 74.6873 1343.29 75.3982 1342.36 75.9344C1341.44 76.4707 1340.32 76.7326 1339 76.7326C1337.22 76.7326 1335.78 76.321 1334.66 75.4979C1333.52 74.6748 1332.88 73.5525 1332.74 72.1308H1335.85C1336.02 72.7044 1336.38 73.1534 1336.91 73.4901C1337.45 73.8268 1338.12 73.9889 1338.9 73.9889C1339.81 73.9889 1340.55 73.7146 1341.12 73.1658C1341.68 72.6171 1341.96 71.794 1341.96 70.6841V68.7511C1341.56 69.3372 1341 69.8236 1340.29 70.2102C1339.58 70.5968 1338.77 70.7964 1337.86 70.7964C1336.81 70.7964 1335.85 70.522 1334.99 69.9857C1334.12 69.4495 1333.43 68.6887 1332.93 67.7035C1332.44 66.7183 1332.19 65.5959 1332.19 64.3239C1332.19 63.0643 1332.44 61.9544 1332.93 60.9816C1333.43 60.0089 1334.12 59.2606 1334.98 58.7368C1335.84 58.2131 1336.8 57.9512 1337.86 57.9512C1338.8 57.9636 1339.61 58.1382 1340.32 58.5124ZM1341.53 62.4158C1341.23 61.8671 1340.83 61.4555 1340.32 61.1562C1339.81 60.8694 1339.26 60.7197 1338.68 60.7197C1338.1 60.7197 1337.56 60.8569 1337.06 61.1438C1336.56 61.4306 1336.16 61.8421 1335.87 62.3909C1335.55 62.9396 1335.4 63.5881 1335.4 64.3363C1335.4 65.0846 1335.55 65.7331 1335.87 66.3068C1336.18 66.868 1336.58 67.292 1337.08 67.5913C1337.57 67.8906 1338.11 68.0402 1338.68 68.0402C1339.27 68.0402 1339.82 67.8906 1340.32 67.6038C1340.83 67.3169 1341.23 66.8929 1341.53 66.3442C1341.83 65.7955 1341.98 65.147 1341.98 64.3862C1341.98 63.613 1341.83 62.9645 1341.53 62.4158Z" fill="#29313D" fill-opacity="0.8"/>
<path d="M1348.16 60.9941C1348.66 60.0213 1349.35 59.2731 1350.22 58.7493C1351.09 58.2255 1352.05 57.9636 1353.11 57.9636C1353.92 57.9636 1354.7 58.1382 1355.42 58.4874C1356.16 58.8366 1356.74 59.3105 1357.17 59.8842V53.9854H1360.36V70.5968H1357.17V68.7511C1356.78 69.3622 1356.23 69.861 1355.53 70.2351C1354.83 70.6093 1354.01 70.7963 1353.09 70.7963C1352.04 70.7963 1351.08 70.522 1350.22 69.9857C1349.35 69.4495 1348.66 68.6887 1348.16 67.7035C1347.66 66.7183 1347.41 65.5959 1347.41 64.3239C1347.41 63.0767 1347.66 61.9668 1348.16 60.9941ZM1356.74 62.4158C1356.44 61.8671 1356.04 61.4555 1355.53 61.1562C1355.02 60.8694 1354.47 60.7197 1353.9 60.7197C1353.31 60.7197 1352.78 60.8569 1352.28 61.1437C1351.78 61.4306 1351.38 61.8421 1351.08 62.3908C1350.77 62.9396 1350.62 63.5881 1350.62 64.3363C1350.62 65.0846 1350.77 65.7331 1351.08 66.3067C1351.39 66.8679 1351.79 67.292 1352.29 67.5913C1352.79 67.8906 1353.33 68.0402 1353.9 68.0402C1354.49 68.0402 1355.03 67.8906 1355.53 67.6037C1356.04 67.3169 1356.44 66.8929 1356.74 66.3442C1357.04 65.7954 1357.19 65.1469 1357.19 64.3862C1357.19 63.613 1357.04 62.9645 1356.74 62.4158Z" fill="#29313D" fill-opacity="0.8"/>
<path d="M1374.91 65.3216H1365.82C1365.9 66.2195 1366.21 66.9179 1366.77 67.4292C1367.32 67.9405 1368 68.1899 1368.81 68.1899C1369.99 68.1899 1370.81 67.6911 1371.31 66.6809H1374.7C1374.34 67.8781 1373.65 68.8633 1372.63 69.6365C1371.61 70.4098 1370.36 70.7964 1368.88 70.7964C1367.68 70.7964 1366.61 70.5345 1365.66 69.9982C1364.71 69.462 1363.96 68.7137 1363.44 67.7409C1362.9 66.7682 1362.64 65.6458 1362.64 64.3738C1362.64 63.0892 1362.9 61.9544 1363.43 60.9816C1363.95 60.0089 1364.69 59.2606 1365.62 58.7368C1366.57 58.2131 1367.65 57.9512 1368.88 57.9512C1370.06 57.9512 1371.12 58.2006 1372.06 58.7119C1372.99 59.2232 1373.71 59.9465 1374.24 60.8819C1374.75 61.8172 1375.01 62.8897 1375.01 64.0994C1375 64.5608 1374.96 64.9599 1374.91 65.3216ZM1371.74 63.214C1371.73 62.4033 1371.43 61.7548 1370.87 61.2685C1370.3 60.7821 1369.61 60.5452 1368.79 60.5452C1368.02 60.5452 1367.35 60.7821 1366.83 61.256C1366.29 61.7299 1365.97 62.3784 1365.86 63.2264H1371.74V63.214Z" fill="#29313D" fill-opacity="0.8"/>
</g>
<rect x="960" width="210" height="130" fill="#FDF9F8"/>
<g clip-path="url(#clip1_179_1043)">
<path fill-rule="evenodd" clip-rule="evenodd" d="M1029.81 62.1523L1027.35 64.6138L1027.36 64.7413C1027.41 65.5576 1027.34 66.3611 1027.16 67.1519C1026.98 67.9299 1026.69 68.6951 1026.29 69.3966L1026.16 69.6389L1028.64 71.0674L1028.78 70.825C1029.48 69.5879 1029.93 68.2232 1030.13 66.833C1030.32 65.4428 1030.27 64.0271 1029.94 62.6497L1029.81 62.1523ZM1030.84 54.5253L1018.86 66.5141L1006.87 54.5253L1006.69 54.7549C1004.47 57.3185 1003.18 60.456 1002.87 63.6827C1002.56 66.9095 1003.22 70.2383 1004.89 73.1845L1005.03 73.4269L1007.53 71.9857L1007.38 71.7433C1006.28 69.7919 1005.72 67.6365 1005.68 65.4811C1005.66 63.3129 1006.15 61.1574 1007.2 59.1806L1007.29 59.0147C1008.95 60.6728 1010.6 62.3308 1012.26 63.9761L1012.25 64.0526C1012.06 65.1367 1012.13 66.2463 1012.45 67.2794C1012.77 68.2997 1013.35 69.2563 1014.12 70.0343L1014.25 70.1618L1010.21 72.4958L1010.44 72.7509C1010.73 73.0825 1011.05 73.4014 1011.38 73.6947C1013.51 75.5823 1016.19 76.5261 1018.87 76.5261C1021.55 76.5261 1024.23 75.5695 1026.34 73.6819C1026.67 73.3886 1026.98 73.0825 1027.29 72.7381L1027.52 72.4831L1023.5 70.1618L1023.63 70.0343C1024.4 69.2563 1024.96 68.3125 1025.3 67.2794C1025.62 66.2463 1025.7 65.1495 1025.5 64.0526L1025.48 63.9888L1030.4 59.0658L1030.46 59.002L1031.28 60.6983L1031.27 60.711L1031.32 60.8768C1031.94 62.6624 1032.17 64.55 1032.01 66.3994C1031.84 68.2615 1031.29 70.0725 1030.36 71.7306L1030.22 71.9729L1032.72 73.4269L1032.86 73.1845C1034.53 70.2383 1035.18 66.9095 1034.87 63.6827C1034.56 60.456 1033.27 57.3312 1031.06 54.7549L1030.84 54.5253ZM1007.57 66.8202C1007.77 68.2232 1008.22 69.5879 1008.92 70.8378L1009.06 71.0801L1011.56 69.6389L1011.43 69.3966C1011.04 68.6951 1010.74 67.9299 1010.57 67.1519C1010.39 66.3611 1010.32 65.5576 1010.36 64.7413L1010.37 64.6138L1007.87 62.1267L1007.76 62.6114C1007.43 64.0016 1007.36 65.4301 1007.57 66.8202ZM1036.62 63.4404C1037.06 67.6748 1036 72.0494 1033.36 75.7098L1033.28 75.8119L1029.08 73.3886L1028.93 73.5672C1028.38 74.2304 1027.8 74.8171 1027.17 75.34C1024.77 77.3296 1021.81 78.3244 1018.86 78.3244C1015.9 78.3244 1012.94 77.3424 1010.54 75.3527C1009.9 74.8298 1009.32 74.2431 1008.77 73.5799L1008.61 73.4014L1004.44 75.8119L1004.37 75.7098C1001.71 72.0367 1000.66 67.662 1001.09 63.4404C1001.52 59.2188 1003.45 55.1503 1006.78 52.0893L1006.88 52L1018.87 63.9888L1030.84 52L1030.93 52.0893C1034.26 55.1375 1036.19 59.2188 1036.62 63.4404Z" fill="#29313D" fill-opacity="0.8"/>
<path d="M1047.88 70.6849C1047.03 70.315 1046.35 69.7793 1045.87 69.0906C1045.38 68.4019 1045.13 67.5984 1045.13 66.6801H1047.93C1048 67.3688 1048.27 67.93 1048.75 68.3764C1049.24 68.8228 1049.91 69.0396 1050.78 69.0396C1051.68 69.0396 1052.39 68.8228 1052.9 68.3892C1053.41 67.9555 1053.65 67.3943 1053.65 66.7056C1053.65 66.1699 1053.5 65.7363 1053.18 65.3919C1052.86 65.0603 1052.48 64.7925 1052 64.6139C1051.53 64.4354 1050.89 64.2313 1050.06 64.0145C1049.02 63.7339 1048.18 63.4533 1047.53 63.1727C1046.88 62.8921 1046.33 62.4458 1045.87 61.8591C1045.41 61.2596 1045.18 60.4689 1045.18 59.474C1045.18 58.5558 1045.41 57.7522 1045.87 57.0635C1046.33 56.3748 1046.97 55.8519 1047.79 55.482C1048.62 55.1122 1049.58 54.9336 1050.66 54.9336C1052.21 54.9336 1053.48 55.3162 1054.46 56.0942C1055.45 56.8722 1056 57.9308 1056.11 59.27H1053.21C1053.16 58.6833 1052.9 58.1859 1052.39 57.7778C1051.88 57.3696 1051.21 57.1528 1050.38 57.1528C1049.63 57.1528 1049.02 57.3441 1048.55 57.7267C1048.08 58.1094 1047.83 58.6578 1047.83 59.3848C1047.83 59.8694 1047.99 60.2776 1048.28 60.5964C1048.57 60.9153 1048.96 61.1576 1049.41 61.3361C1049.87 61.5147 1050.5 61.7188 1051.3 61.9356C1052.36 62.2289 1053.21 62.5223 1053.88 62.8029C1054.54 63.0962 1055.12 63.5426 1055.57 64.142C1056.05 64.7415 1056.28 65.5577 1056.28 66.5653C1056.28 67.3816 1056.06 68.1468 1055.63 68.8611C1055.19 69.5753 1054.55 70.162 1053.73 70.5956C1052.9 71.0292 1051.9 71.2461 1050.78 71.2461C1049.71 71.2461 1048.74 71.0548 1047.88 70.6849Z" fill="#29313D" fill-opacity="0.8"/>
<path d="M1063.81 58.8236C1064.58 58.4282 1065.45 58.2241 1066.4 58.2241C1067.5 58.2241 1068.51 58.492 1069.43 59.0404C1070.33 59.5888 1071.04 60.3413 1071.57 61.3234C1072.09 62.3054 1072.35 63.4278 1072.35 64.7032C1072.35 65.9786 1072.09 67.1137 1071.57 68.1085C1071.04 69.1161 1070.33 69.8941 1069.43 70.4553C1068.52 71.0165 1067.51 71.2971 1066.4 71.2971C1065.43 71.2971 1064.58 71.1057 1063.83 70.7104C1063.07 70.315 1062.46 69.8303 1061.99 69.2564V77.1129H1059.38V58.4282H1061.99V60.2903C1062.45 59.7036 1063.05 59.2189 1063.81 58.8236ZM1069.16 62.433C1068.8 61.7953 1068.33 61.3106 1067.73 60.9918C1067.14 60.6602 1066.5 60.4943 1065.84 60.4943C1065.18 60.4943 1064.55 60.6602 1063.97 61.0045C1063.38 61.3489 1062.91 61.8335 1062.54 62.4712C1062.18 63.1089 1062 63.8742 1062 64.7415C1062 65.6087 1062.18 66.374 1062.54 67.0244C1062.9 67.6749 1063.37 68.1723 1063.97 68.5039C1064.55 68.8355 1065.18 69.0141 1065.84 69.0141C1066.52 69.0141 1067.14 68.8483 1067.73 68.5039C1068.32 68.1596 1068.79 67.6621 1069.16 66.9989C1069.51 66.3357 1069.69 65.5705 1069.69 64.7032C1069.69 63.8359 1069.51 63.0707 1069.16 62.433Z" fill="#29313D" fill-opacity="0.8"/>
<path d="M1075.09 56.2726C1074.77 55.9537 1074.6 55.5583 1074.6 55.0737C1074.6 54.589 1074.77 54.2064 1075.09 53.8748C1075.41 53.5432 1075.8 53.3901 1076.29 53.3901C1076.75 53.3901 1077.14 53.5559 1077.46 53.8748C1077.78 54.1936 1077.95 54.589 1077.95 55.0737C1077.95 55.5583 1077.78 55.9537 1077.46 56.2726C1077.14 56.5914 1076.75 56.7572 1076.29 56.7572C1075.82 56.7572 1075.41 56.5914 1075.09 56.2726ZM1077.58 58.428V71.0801H1074.96V58.428H1077.58Z" fill="#29313D" fill-opacity="0.8"/>
<path d="M1080.93 61.3234C1081.45 60.3413 1082.18 59.5761 1083.08 59.0404C1083.99 58.5047 1085.01 58.2241 1086.12 58.2241C1086.95 58.2241 1087.77 58.4027 1088.57 58.7598C1089.37 59.1169 1090.01 59.6016 1090.48 60.1882V54.0918H1093.12V71.0802H1090.48V69.1799C1090.05 69.7921 1089.46 70.3022 1088.7 70.6976C1087.94 71.093 1087.06 71.2971 1086.09 71.2971C1085 71.2971 1083.99 71.0165 1083.07 70.4553C1082.17 69.8941 1081.44 69.1161 1080.92 68.1085C1080.39 67.101 1080.13 65.9658 1080.13 64.7032C1080.13 63.4405 1080.41 62.3054 1080.93 61.3234ZM1089.96 62.4712C1089.6 61.8335 1089.13 61.3361 1088.54 61.0045C1087.96 60.6729 1087.33 60.4943 1086.66 60.4943C1085.98 60.4943 1085.36 60.6602 1084.77 60.9918C1084.18 61.3234 1083.72 61.808 1083.35 62.433C1083 63.0707 1082.82 63.8232 1082.82 64.6904C1082.82 65.5577 1083 66.323 1083.35 66.9862C1083.71 67.6494 1084.18 68.1468 1084.78 68.4912C1085.38 68.8355 1085.99 69.0013 1086.66 69.0013C1087.33 69.0013 1087.96 68.8355 1088.54 68.4912C1089.13 68.1596 1089.6 67.6621 1089.96 67.0117C1090.32 66.3612 1090.5 65.596 1090.5 64.7287C1090.5 63.8742 1090.32 63.1089 1089.96 62.4712Z" fill="#29313D" fill-opacity="0.8"/>
<path d="M1108.08 65.7363H1098.42C1098.49 66.7439 1098.86 67.5601 1099.54 68.1723C1100.21 68.7845 1101.04 69.0906 1102.01 69.0906C1103.42 69.0906 1104.41 68.5039 1105 67.3178H1107.82C1107.43 68.4784 1106.74 69.435 1105.74 70.1747C1104.73 70.9144 1103.49 71.2843 1102.01 71.2843C1100.8 71.2843 1099.72 71.0165 1098.76 70.468C1097.8 69.9196 1097.05 69.1544 1096.52 68.1723C1095.97 67.1902 1095.7 66.0424 1095.7 64.7415C1095.7 63.4405 1095.97 62.2927 1096.49 61.3106C1097.01 60.3285 1097.77 59.5633 1098.72 59.0276C1099.68 58.492 1100.78 58.2241 1102.01 58.2241C1103.21 58.2241 1104.27 58.4792 1105.2 59.0021C1106.13 59.525 1106.86 60.252 1107.38 61.1958C1107.9 62.1396 1108.16 63.2237 1108.16 64.4481C1108.17 64.92 1108.15 65.3537 1108.08 65.7363ZM1105.44 63.6191C1105.43 62.6498 1105.09 61.8845 1104.41 61.2979C1103.73 60.7112 1102.91 60.4306 1101.91 60.4306C1101 60.4306 1100.24 60.7239 1099.59 61.2979C1098.95 61.8718 1098.57 62.6498 1098.44 63.6319H1105.44V63.6191Z" fill="#29313D" fill-opacity="0.8"/>
<path d="M1114.89 58.7598C1115.53 58.4027 1116.28 58.2241 1117.15 58.2241V60.928H1116.49C1115.47 60.928 1114.69 61.1831 1114.15 61.706C1113.63 62.2289 1113.36 63.1344 1113.36 64.4099V71.0675H1110.75V58.4282H1113.36V60.2648C1113.75 59.6271 1114.26 59.1297 1114.89 58.7598Z" fill="#29313D" fill-opacity="0.8"/>
<path d="M1121.47 70.7486C1120.68 70.3915 1120.06 69.8941 1119.6 69.2819C1119.14 68.657 1118.9 67.9682 1118.86 67.203H1121.56C1121.62 67.7387 1121.87 68.1851 1122.33 68.5422C1122.8 68.8993 1123.38 69.0778 1124.09 69.0778C1124.83 69.0778 1125.39 68.9376 1125.8 68.657C1126.21 68.3764 1126.41 68.0065 1126.41 67.5729C1126.41 67.101 1126.18 66.7438 1125.73 66.5143C1125.29 66.2847 1124.56 66.0296 1123.59 65.7618C1122.65 65.5067 1121.87 65.2516 1121.27 65.0093C1120.67 64.767 1120.16 64.3843 1119.71 63.8869C1119.28 63.3768 1119.06 62.7136 1119.06 61.8845C1119.06 61.2086 1119.27 60.5964 1119.66 60.0352C1120.06 59.474 1120.63 59.0404 1121.37 58.7088C1122.11 58.3772 1122.97 58.2241 1123.94 58.2241C1125.38 58.2241 1126.54 58.594 1127.42 59.3082C1128.3 60.0352 1128.77 61.03 1128.83 62.2799H1126.22C1126.17 61.7187 1125.94 61.2596 1125.53 60.928C1125.12 60.5964 1124.56 60.4178 1123.86 60.4178C1123.17 60.4178 1122.65 60.5454 1122.28 60.8132C1121.91 61.081 1121.73 61.4126 1121.73 61.8463C1121.73 62.1779 1121.86 62.4712 1122.1 62.7008C1122.34 62.9304 1122.65 63.1089 1122.99 63.2365C1123.35 63.364 1123.86 63.5298 1124.55 63.7339C1125.47 63.9762 1126.22 64.2313 1126.81 64.4736C1127.39 64.7287 1127.9 65.0986 1128.34 65.5832C1128.77 66.0679 1128.99 66.7183 1129 67.5346C1129 68.2488 1128.8 68.8993 1128.4 69.4605C1128.01 70.0216 1127.44 70.468 1126.72 70.7869C1125.99 71.1057 1125.14 71.2715 1124.15 71.2715C1123.16 71.2843 1122.27 71.1057 1121.47 70.7486Z" fill="#29313D" fill-opacity="0.8"/>
</g>
<rect x="720" width="210" height="130" fill="#FDF9F8"/>
<g clip-path="url(#clip2_179_1043)">
<path fill-rule="evenodd" clip-rule="evenodd" d="M796.978 53.377H786.86V77.5095C786.86 78.4454 786.101 79.1917 785.178 79.1917C784.242 79.1917 783.495 78.4328 783.495 77.5095V53.377H773.377V74.1198C773.377 75.0558 774.111 75.8273 775.059 75.8273C775.995 75.8273 776.741 75.0684 776.741 74.1451V56.7667H780.118V74.1451C780.118 76.9403 777.854 79.2043 775.059 79.2043C772.264 79.2043 770 76.9403 770 74.1451V50C780.118 50 790.237 50 800.355 50V74.1325C800.355 76.9277 798.091 79.1917 795.296 79.1917C792.501 79.1917 790.237 76.9277 790.237 74.1325V56.7414H793.614V74.1198C793.614 75.0558 794.373 75.802 795.296 75.802C796.232 75.802 796.978 75.0431 796.978 74.1198V53.377Z" fill="#29313D" fill-opacity="0.8"/>
<path d="M812.851 55.9951V67.4037C812.851 68.757 813.205 69.7815 813.914 70.4645C814.622 71.1475 815.621 71.489 816.886 71.489C818.176 71.489 819.175 71.1475 819.884 70.4645C820.592 69.7815 820.946 68.757 820.946 67.4037V55.9951H823.88V67.3531C823.88 68.8076 823.564 70.0471 822.932 71.0589C822.299 72.0708 821.452 72.8297 820.377 73.3229C819.314 73.8162 818.138 74.0692 816.848 74.0692C815.558 74.0692 814.394 73.8162 813.332 73.3229C812.282 72.8297 811.435 72.0708 810.828 71.0589C810.208 70.0471 809.904 68.8076 809.904 67.3531V55.9951H812.851Z" fill="#29313D" fill-opacity="0.8"/>
<path d="M830.647 54.8442V73.8922H827.713V54.8442H830.647Z" fill="#29313D" fill-opacity="0.8"/>
<path d="M834.417 62.9518C835.011 61.8515 835.821 61.004 836.832 60.3843C837.857 59.7772 838.983 59.4736 840.222 59.4736C841.335 59.4736 842.309 59.6887 843.144 60.1313C843.979 60.574 844.636 61.1179 845.142 61.7629V59.7013H848.102V73.8924H845.142V71.7802C844.649 72.4505 843.966 73.007 843.106 73.4497C842.246 73.8924 841.272 74.1201 840.171 74.1201C838.957 74.1201 837.832 73.8039 836.82 73.1841C835.808 72.5517 834.998 71.679 834.417 70.5533C833.822 69.4276 833.531 68.1502 833.531 66.7336C833.531 65.317 833.822 64.0522 834.417 62.9518ZM844.535 64.2419C844.13 63.521 843.599 62.9771 842.954 62.5977C842.296 62.2183 841.601 62.0285 840.842 62.0285C840.083 62.0285 839.387 62.2183 838.73 62.5851C838.072 62.9518 837.553 63.4957 837.149 64.204C836.744 64.9123 836.541 65.7597 836.541 66.7463C836.541 67.7328 836.744 68.5802 837.149 69.3265C837.553 70.06 838.085 70.6292 838.742 71.0086C839.4 71.4007 840.108 71.5905 840.842 71.5905C841.601 71.5905 842.296 71.4007 842.954 71.0213C843.612 70.6419 844.13 70.0853 844.535 69.3644C844.94 68.6308 845.142 67.7834 845.142 66.7968C845.142 65.8103 844.94 64.9629 844.535 64.2419Z" fill="#29313D" fill-opacity="0.8"/>
<path d="M856.942 60.1311C857.815 59.6884 858.776 59.4734 859.839 59.4734C861.091 59.4734 862.229 59.777 863.241 60.3714C864.253 60.9785 865.05 61.826 865.632 62.939C866.213 64.052 866.504 65.3168 866.504 66.7334C866.504 68.15 866.213 69.4274 865.632 70.5531C865.05 71.6788 864.24 72.5515 863.228 73.1839C862.204 73.8163 861.078 74.1199 859.839 74.1199C858.738 74.1199 857.764 73.9048 856.917 73.4748C856.07 73.0448 855.399 72.5009 854.893 71.8306V73.8922H851.959V54.8442H854.893V61.826C855.399 61.1303 856.082 60.5738 856.942 60.1311ZM862.912 64.2038C862.507 63.4955 861.976 62.9516 861.319 62.5848C860.661 62.218 859.953 62.0283 859.194 62.0283C858.46 62.0283 857.752 62.218 857.094 62.5975C856.436 62.9769 855.905 63.5208 855.5 64.2417C855.096 64.9627 854.893 65.8101 854.893 66.7966C854.893 67.7705 855.096 68.6306 855.5 69.3642C855.905 70.0978 856.436 70.6416 857.094 71.0211C857.752 71.4005 858.46 71.5902 859.194 71.5902C859.953 71.5902 860.661 71.4005 861.319 71.0084C861.976 70.6163 862.507 70.0598 862.912 69.3262C863.317 68.5927 863.519 67.7326 863.519 66.746C863.519 65.7595 863.317 64.9121 862.912 64.2038Z" fill="#29313D" fill-opacity="0.8"/>
<path d="M871.563 73.5256C870.678 73.1209 869.982 72.577 869.464 71.8814C868.945 71.1857 868.68 70.4142 868.642 69.5541H871.677C871.728 70.1612 872.019 70.6545 872.537 71.0592C873.056 71.464 873.713 71.6663 874.51 71.6663C875.332 71.6663 875.977 71.5019 876.433 71.1857C876.888 70.8695 877.116 70.4648 877.116 69.9589C877.116 69.4276 876.863 69.0356 876.357 68.7699C875.851 68.517 875.042 68.2261 873.954 67.9225C872.891 67.6316 872.019 67.3407 871.348 67.0751C870.678 66.7968 870.096 66.3795 869.616 65.8103C869.122 65.2411 868.882 64.4949 868.882 63.5716C868.882 62.8127 869.11 62.1297 869.552 61.4973C869.995 60.8649 870.64 60.3716 871.475 60.0175C872.31 59.6634 873.271 59.4736 874.346 59.4736C875.965 59.4736 877.255 59.8784 878.241 60.7005C879.228 61.5226 879.759 62.623 879.822 64.0396H876.888C876.838 63.4072 876.585 62.9013 876.117 62.5218C875.649 62.1424 875.029 61.9526 874.232 61.9526C873.461 61.9526 872.866 62.1044 872.461 62.3953C872.044 62.6862 871.842 63.0783 871.842 63.5589C871.842 63.9384 871.981 64.2546 872.259 64.5076C872.537 64.7605 872.866 64.9629 873.258 65.1147C873.65 65.2664 874.232 65.4435 875.004 65.6712C876.028 65.9494 876.875 66.2277 877.546 66.5059C878.204 66.7842 878.773 67.2016 879.253 67.7581C879.734 68.302 879.987 69.0356 880 69.9462C880 70.7557 879.772 71.4766 879.329 72.109C878.887 72.7414 878.254 73.2473 877.432 73.6015C876.61 73.9556 875.661 74.1454 874.561 74.1454C873.448 74.1201 872.449 73.9303 871.563 73.5256Z" fill="#29313D" fill-opacity="0.8"/>
</g>
<rect x="480" width="210" height="130" fill="#FDF9F8"/>
<g clip-path="url(#clip3_179_1043)">
<path fill-rule="evenodd" clip-rule="evenodd" d="M535.489 52C535.489 55.0351 533.035 57.489 530 57.489V61.4928C535.244 61.4928 539.493 57.2436 539.493 52H535.489ZM545.498 66.194C544.723 67.2789 543.858 68.2733 542.902 69.1903C539.312 71.9025 534.843 73.5041 530 73.5041V77.482L530.413 77.5078C536.083 77.4174 541.301 75.4801 545.485 72.2642C549.683 75.4801 554.901 77.4174 560.558 77.5078L560.997 77.4949V73.5041C556.154 73.5041 551.685 71.9025 548.094 69.2032C547.139 68.2863 546.273 67.2789 545.498 66.194ZM545.266 60.5629C545.343 60.4208 545.421 60.2787 545.498 60.1367C545.576 60.2787 545.653 60.4208 545.731 60.5629C548.727 65.8969 554.449 69.5003 560.997 69.5003V65.4965C553.545 65.4965 547.5 59.4522 547.5 52H543.497C543.497 55.0351 542.489 57.8377 540.81 60.085C538.343 63.3784 534.417 65.4965 530 65.4965V69.5003C534.934 69.5003 539.402 67.4597 542.58 64.1663C543.626 63.0943 544.53 61.8802 545.266 60.5629ZM551.504 52C551.504 57.2436 555.753 61.4928 560.997 61.4928V57.489C557.962 57.489 555.508 55.0351 555.508 52H551.504Z" fill="#29313D" fill-opacity="0.8"/>
<path d="M580.202 73.62L576.482 67.1623H574.454V73.62H571.807V57.4629H577.386C578.626 57.4629 579.672 57.6825 580.537 58.1087C581.403 58.5349 582.036 59.129 582.462 59.8522C582.888 60.5755 583.108 61.3892 583.108 62.2932C583.108 63.3523 582.798 64.308 582.191 65.1604C581.584 66.0258 580.641 66.607 579.362 66.9169L583.366 73.6071H580.202V73.62ZM574.467 65.0442H577.399C578.393 65.0442 579.143 64.7988 579.646 64.2951C580.15 63.8043 580.395 63.1327 580.395 62.2932C580.395 61.4537 580.15 60.808 579.646 60.3301C579.155 59.8522 578.393 59.6198 577.386 59.6198H574.454V65.0442H574.467Z" fill="#29313D" fill-opacity="0.8"/>
<path d="M586.646 58.6254C586.323 58.3025 586.155 57.9022 586.155 57.4114C586.155 56.9206 586.323 56.5331 586.646 56.1973C586.969 55.8615 587.369 55.7065 587.86 55.7065C588.325 55.7065 588.725 55.8744 589.048 56.1973C589.371 56.5202 589.539 56.9206 589.539 57.4114C589.539 57.9022 589.371 58.2896 589.048 58.6254C588.725 58.9612 588.325 59.1162 587.86 59.1162C587.369 59.1162 586.969 58.9483 586.646 58.6254ZM589.152 60.8081V73.6201H586.504V60.8081H589.152Z" fill="#29313D" fill-opacity="0.8"/>
<path d="M601.809 61.2344C602.609 61.6477 603.229 62.2676 603.681 63.0942C604.133 63.9208 604.353 64.9024 604.353 66.0648V73.6202H601.731V66.4651C601.731 65.3157 601.447 64.4374 600.866 63.8304C600.297 63.2234 599.51 62.9134 598.515 62.9134C597.521 62.9134 596.733 63.2234 596.152 63.8304C595.57 64.4374 595.273 65.3157 595.273 66.4651V73.6202H592.639V60.8082H595.286V62.2676C595.725 61.7381 596.281 61.3248 596.952 61.0407C597.624 60.7565 598.347 60.6016 599.109 60.6016C600.104 60.6016 601.008 60.8082 601.809 61.2344Z" fill="#29313D" fill-opacity="0.8"/>
<path d="M613.097 62.9778H610.721V73.6201H608.047V62.9778H606.536V60.8081H608.047V59.904C608.047 58.4316 608.435 57.3597 609.223 56.6881C610.01 56.0165 611.237 55.6807 612.903 55.6807V57.8892C612.103 57.8892 611.534 58.0442 611.211 58.3412C610.889 58.6383 610.721 59.1678 610.721 59.904V60.8081H613.097V62.9778Z" fill="#29313D" fill-opacity="0.8"/>
<path d="M615.37 63.74C615.899 62.7455 616.636 61.9706 617.553 61.4281C618.47 60.8857 619.49 60.6016 620.614 60.6016C621.621 60.6016 622.499 60.7953 623.248 61.1957C623.997 61.596 624.604 62.0868 625.056 62.668V60.8082H627.73V73.6202H625.056V71.7088C624.604 72.3158 623.997 72.8195 623.222 73.2199C622.447 73.6202 621.569 73.8269 620.575 73.8269C619.477 73.8269 618.47 73.5427 617.553 72.9745C616.636 72.4062 615.912 71.6184 615.383 70.598C614.853 69.5777 614.582 68.4283 614.582 67.1496C614.582 65.871 614.827 64.7345 615.37 63.74ZM624.501 64.9024C624.139 64.2566 623.662 63.7529 623.067 63.4171C622.473 63.0813 621.84 62.9005 621.156 62.9005C620.471 62.9005 619.839 63.0684 619.244 63.4042C618.663 63.74 618.198 64.2179 617.824 64.8636C617.462 65.5094 617.281 66.2714 617.281 67.1496C617.281 68.0279 617.462 68.8028 617.824 69.4744C618.185 70.146 618.663 70.6497 619.27 70.9984C619.877 71.3471 620.497 71.515 621.169 71.515C621.853 71.515 622.486 71.3471 623.08 70.9984C623.674 70.6626 624.152 70.1589 624.514 69.5002C624.876 68.8416 625.056 68.0666 625.056 67.1884C625.043 66.3231 624.863 65.5481 624.501 64.9024Z" fill="#29313D" fill-opacity="0.8"/>
<path d="M633.852 56.417V73.6202H631.204V56.417H633.852Z" fill="#29313D" fill-opacity="0.8"/>
<path d="M639.999 56.417V73.6202H637.352V56.417H639.999Z" fill="#29313D" fill-opacity="0.8"/>
</g>
<rect x="240" width="210" height="130" fill="#FDF9F8"/>
<g clip-path="url(#clip4_179_1043)">
<path d="M320.974 63.8908C322.697 63.8908 324.08 65.2729 324.08 66.9961C324.08 68.7193 322.697 70.1014 320.974 70.1014C319.251 70.1014 317.869 68.7193 317.869 66.9961C317.869 66.4217 318.03 65.8652 318.3 65.3985L314.494 59.1879C314.423 59.1879 314.351 59.1879 314.279 59.1879C314.153 59.1879 314.046 59.1879 313.92 59.17L307.458 68.6654C307.691 69.0962 307.817 69.5988 307.817 70.1193C307.817 71.8425 306.435 73.2247 304.712 73.2247C302.989 73.2247 301.606 71.8425 301.606 70.1193C301.606 69.6885 301.696 69.2936 301.84 68.9167L297.406 63.5677C297.209 63.6215 296.993 63.6395 296.778 63.6395C296.688 63.6395 296.58 63.6395 296.491 63.6215L286.816 78.5557C287.067 79.0045 287.211 79.525 287.211 80.0815C287.211 81.8047 285.811 83.1868 284.105 83.1868C282.4 83.1868 281 81.8047 281 80.0815C281 78.3583 282.4 76.9762 284.105 76.9762C284.195 76.9762 284.303 76.9762 284.393 76.9941L294.067 62.0599C293.816 61.6111 293.673 61.0906 293.673 60.5341C293.673 58.811 295.055 57.4288 296.778 57.4288C298.501 57.4288 299.883 58.811 299.883 60.5341C299.883 60.9649 299.793 61.3598 299.65 61.7368L304.083 67.1038C304.299 67.0679 304.514 67.032 304.73 67.032C304.855 67.032 304.963 67.032 305.089 67.0499L311.551 57.5545C311.317 57.1237 311.192 56.6211 311.192 56.1005C311.192 54.3774 312.574 52.9952 314.297 52.9952C316.02 52.9952 317.402 54.3774 317.402 56.1005C317.402 56.6749 317.241 57.2314 316.971 57.6981L320.795 63.9087C320.831 63.8908 320.902 63.8908 320.974 63.8908ZM314.728 71.2861C315.051 70.5501 315.894 70.227 316.63 70.5501C317.366 70.8732 317.689 71.7169 317.366 72.4528C315.93 75.6838 313.597 78.4121 310.653 80.3148C307.817 82.1637 304.424 83.2406 300.781 83.2406C298.86 83.2406 297.011 82.9355 295.252 82.3791C293.439 81.8047 291.77 80.9431 290.262 79.8661C289.616 79.3994 289.454 78.5019 289.921 77.8557C290.388 77.2095 291.285 77.048 291.931 77.5147C293.206 78.4301 294.624 79.1481 296.132 79.6327C297.586 80.0994 299.147 80.3507 300.781 80.3507C303.85 80.3507 306.704 79.4532 309.091 77.8916C311.551 76.2941 313.525 73.9965 314.728 71.2861ZM286.259 69.7603C286.493 70.5142 286.08 71.322 285.326 71.5733C284.572 71.8066 283.764 71.3938 283.513 70.6399C283.226 69.7603 283.01 68.8449 282.867 67.9295C282.723 66.9961 282.651 66.0627 282.651 65.1293C282.651 60.1213 284.68 55.598 287.965 52.3131C291.249 49.0283 295.773 47 300.781 47C302.683 47 304.532 47.3051 306.273 47.8436C308.05 48.4001 309.72 49.2437 311.245 50.3207C311.892 50.7695 312.053 51.6669 311.586 52.3311C311.138 52.9773 310.24 53.1388 309.576 52.6721C308.32 51.7926 306.92 51.0746 305.394 50.6079C303.94 50.1412 302.396 49.8899 300.781 49.8899C296.58 49.8899 292.757 51.5951 290.011 54.3594C287.247 57.1237 285.541 60.929 285.541 65.1293C285.541 65.955 285.595 66.7448 285.721 67.4807C285.846 68.2705 286.026 69.0244 286.259 69.7603Z" fill="#29313D" fill-opacity="0.8"/>
<path d="M332.39 58.9724C333.072 57.8057 334.006 56.9082 335.173 56.2441C336.339 55.5979 337.632 55.2568 339.014 55.2568C340.611 55.2568 342.029 55.6517 343.268 56.4236C344.506 57.2134 345.404 58.3083 345.978 59.7443H343.035C342.64 58.9545 342.101 58.3622 341.419 57.9852C340.737 57.5903 339.929 57.4108 339.032 57.4108C338.045 57.4108 337.165 57.6262 336.375 58.075C335.603 58.5237 334.993 59.1519 334.562 59.9956C334.131 60.8213 333.898 61.7906 333.898 62.9035C333.898 64.0163 334.114 64.9856 334.562 65.8113C335.011 66.637 335.603 67.2832 336.375 67.7319C337.147 68.1807 338.027 68.414 339.032 68.414C339.929 68.414 340.737 68.2166 341.419 67.8396C342.101 67.4627 342.64 66.8704 343.035 66.0806H345.978C345.422 67.5165 344.524 68.6294 343.268 69.4013C342.029 70.1731 340.611 70.568 339.014 70.568C337.614 70.568 336.321 70.2449 335.155 69.5808C333.988 68.9346 333.072 68.0191 332.39 66.8524C331.708 65.6857 331.367 64.3753 331.367 62.9035C331.367 61.4316 331.708 60.1392 332.39 58.9724Z" fill="#29313D" fill-opacity="0.8"/>
<path d="M352.727 58.8649C353.319 58.5239 354.037 58.3623 354.845 58.3623V60.9112H354.217C353.248 60.9112 352.53 61.1625 352.027 61.6471C351.525 62.1318 351.291 62.9754 351.291 64.196V70.4425H348.832V58.5598H351.291V60.2829C351.65 59.6726 352.135 59.2059 352.727 58.8649Z" fill="#29313D" fill-opacity="0.8"/>
<path d="M367.895 65.4162H358.83C358.902 66.3675 359.261 67.1214 359.889 67.6958C360.517 68.2702 361.289 68.5574 362.223 68.5574C363.551 68.5574 364.484 68.001 365.023 66.906H367.679C367.32 68.001 366.674 68.8985 365.723 69.5806C364.789 70.2806 363.623 70.6216 362.223 70.6216C361.092 70.6216 360.069 70.3703 359.171 69.8498C358.274 69.3472 357.574 68.6292 357.053 67.6958C356.533 66.7624 356.281 65.7034 356.281 64.4828C356.281 63.2622 356.533 62.1852 357.017 61.2698C357.52 60.3364 358.202 59.6364 359.099 59.1338C359.997 58.6312 361.02 58.3799 362.187 58.3799C363.3 58.3799 364.305 58.6312 365.184 59.1158C366.064 59.6005 366.746 60.2826 367.231 61.1801C367.715 62.0596 367.967 63.0827 367.967 64.2315C367.985 64.6444 367.949 65.0393 367.895 65.4162ZM365.418 63.4238C365.4 62.5263 365.077 61.7903 364.448 61.2518C363.82 60.7134 363.03 60.4262 362.097 60.4262C361.253 60.4262 360.517 60.6954 359.925 61.2339C359.315 61.7724 358.956 62.5083 358.848 63.4238H365.418Z" fill="#29313D" fill-opacity="0.8"/>
<path d="M372.508 69.8502C371.611 69.3476 370.893 68.6296 370.372 67.6962C369.852 66.7628 369.601 65.7038 369.601 64.4832C369.601 63.2805 369.87 62.2036 370.39 61.2702C370.929 60.3368 371.647 59.6188 372.562 59.1162C373.478 58.6136 374.501 58.3623 375.65 58.3623C376.798 58.3623 377.804 58.6136 378.737 59.1162C379.652 59.6188 380.388 60.3368 380.909 61.2702C381.429 62.2036 381.699 63.2805 381.699 64.4832C381.699 65.6858 381.429 66.7628 380.873 67.6962C380.335 68.6296 379.581 69.3476 378.647 69.8681C377.714 70.3707 376.673 70.64 375.542 70.64C374.429 70.622 373.406 70.3707 372.508 69.8502ZM377.319 68.0372C377.875 67.7321 378.324 67.2834 378.665 66.6731C379.006 66.0628 379.186 65.3448 379.186 64.4832C379.186 63.6216 379.024 62.8857 378.683 62.2933C378.36 61.701 377.929 61.2522 377.373 60.9471C376.834 60.6419 376.242 60.4983 375.614 60.4983C374.986 60.4983 374.393 60.6419 373.855 60.9471C373.316 61.2522 372.885 61.701 372.58 62.2933C372.257 62.8857 372.114 63.6216 372.114 64.4832C372.114 65.7576 372.437 66.7449 373.101 67.4449C373.747 68.1449 374.573 68.486 375.56 68.486C376.17 68.486 376.763 68.3424 377.319 68.0372Z" fill="#29313D" fill-opacity="0.8"/>
<path d="M392.63 58.9546C393.366 59.3495 393.94 59.9239 394.371 60.6778C394.784 61.4317 394.999 62.3651 394.999 63.4421V70.4425H392.558V63.8011C392.558 62.7421 392.289 61.9164 391.768 61.3599C391.23 60.7855 390.512 60.5163 389.596 60.5163C388.681 60.5163 387.945 60.8035 387.407 61.3599C386.868 61.9343 386.599 62.7421 386.599 63.8011V70.4425H384.14V58.5598H386.599V59.9239C386.994 59.4393 387.514 59.0623 388.142 58.7752C388.771 58.5059 389.435 58.3623 390.135 58.3623C391.05 58.3623 391.894 58.5598 392.63 58.9546Z" fill="#29313D" fill-opacity="0.8"/>
<path d="M408.91 65.4162H399.846C399.918 66.3675 400.277 67.1214 400.905 67.6958C401.533 68.2702 402.305 68.5574 403.238 68.5574C404.567 68.5574 405.5 68.001 406.038 66.906H408.695C408.336 68.001 407.69 68.8985 406.738 69.5806C405.805 70.2806 404.638 70.6216 403.238 70.6216C402.107 70.6216 401.084 70.3703 400.187 69.8498C399.289 69.3472 398.589 68.6292 398.069 67.6958C397.548 66.7624 397.297 65.7034 397.297 64.4828C397.297 63.2622 397.548 62.1852 398.033 61.2698C398.535 60.3364 399.218 59.6364 400.115 59.1338C401.012 58.6312 402.036 58.3799 403.202 58.3799C404.315 58.3799 405.32 58.6312 406.2 59.1158C407.08 59.6005 407.762 60.2826 408.246 61.1801C408.731 62.0596 408.982 63.0827 408.982 64.2315C409 64.6444 408.964 65.0393 408.91 65.4162ZM406.433 63.4238C406.415 62.5263 406.092 61.7903 405.464 61.2518C404.836 60.7134 404.046 60.4262 403.113 60.4262C402.269 60.4262 401.533 60.6954 400.941 61.2339C400.33 61.7724 399.971 62.5083 399.864 63.4238H406.433Z" fill="#29313D" fill-opacity="0.8"/>
</g>
<rect width="210" height="130" fill="#FDF9F8"/>
<g clip-path="url(#clip5_179_1043)">
<path fill-rule="evenodd" clip-rule="evenodd" d="M57.5141 74.3979L54.9012 77.0109C56.9567 78.2128 59.3432 78.8922 61.9039 78.8922C64.4472 78.8922 66.8511 78.2128 68.9066 77.0109L66.2937 74.3979C64.9698 75.025 63.4717 75.3734 61.9039 75.3734C60.3361 75.356 58.8555 75.0076 57.5141 74.3979ZM48.3862 49L55.9289 56.5427C52.4276 59.0163 50.8076 63.4061 51.8527 67.552C52.0095 68.1965 52.236 68.8062 52.5147 69.3985L49.9017 72.0114C49.5882 71.4714 49.3095 70.914 49.0656 70.3391C47.1668 65.7578 47.881 60.4447 50.9121 56.5253L48.4036 54.0169C43.2126 60.3751 43.2126 69.6598 48.4036 76.018C52.8979 71.5237 57.4096 67.012 61.9039 62.5177C66.3982 67.012 70.9099 71.5237 75.4042 76.018C80.5952 69.6598 80.5952 60.3751 75.4042 54.0169L72.8957 56.5253C75.9442 60.4622 76.641 65.7578 74.7248 70.3391C74.4809 70.914 74.2022 71.4714 73.8887 72.0114L71.2757 69.3985C71.5544 68.8062 71.7635 68.1965 71.9377 67.552C72.9828 63.3887 71.3628 59.0163 67.8614 56.5427L75.4216 49C85.2463 57.2918 85.316 72.656 75.4216 81.0174C70.9099 76.5057 66.4156 72.0114 61.9039 67.4997C57.3922 72.0114 52.8979 76.5057 48.3862 81.0174C38.4918 72.6734 38.5789 57.2918 48.3862 49Z" fill="#29313D" fill-opacity="0.8"/>
<path d="M98.3112 69.712C96.6389 65.0261 94.9143 60.3924 93.1201 55.7762C93.7646 55.7936 94.3047 55.7936 94.7053 55.7936C95.1582 55.7936 95.6808 55.7936 96.2905 55.7762L99.1473 64.2248L100.349 67.5519C100.611 67.0468 100.994 66.2455 101.516 65.1306C102.039 64.0157 102.405 63.197 102.631 62.6744C102.318 61.7163 101.917 60.5666 101.447 59.2079C100.976 57.8492 100.541 56.7169 100.193 55.7762C100.767 55.7936 101.273 55.7936 101.708 55.7936C102.196 55.7936 102.701 55.7936 103.224 55.7762C103.537 57.013 103.903 58.2324 104.286 59.4343C104.861 58.1975 105.384 56.9782 105.854 55.7762C106.446 55.7936 106.917 55.7936 107.282 55.7936C107.7 55.7936 108.171 55.7936 108.711 55.7762C108.275 56.6472 107.735 57.7621 107.091 59.1208C106.446 60.4795 105.924 61.6118 105.54 62.5002C105.697 62.988 105.976 63.8241 106.377 64.9912C106.795 66.1584 107.091 66.9945 107.282 67.4648L110.017 61.6292L112.003 57.2569L112.648 55.7588C113.31 55.7762 113.832 55.7762 114.215 55.7762C114.651 55.7762 115.173 55.7762 115.801 55.7588L113.884 59.5737L109.878 67.7958L108.972 69.6946C108.24 69.6771 107.613 69.6771 107.108 69.6771C106.568 69.6771 105.941 69.6771 105.227 69.6946C104.826 68.3184 104.373 66.9771 103.903 65.6532C103.258 66.9771 102.649 68.3184 102.074 69.6946C101.342 69.6771 100.715 69.6771 100.193 69.6771C99.6351 69.6946 99.008 69.712 98.3112 69.712Z" fill="#29313D" fill-opacity="0.8"/>
<path d="M116.846 61.6118C116.933 61.124 117.002 60.7756 117.02 60.584C117.037 60.3924 117.089 60.0789 117.142 59.6782C118.065 59.4692 118.884 59.3124 119.598 59.2253C120.312 59.1382 120.991 59.0859 121.653 59.0859C122.402 59.0859 123.082 59.173 123.709 59.3472C124.336 59.5214 124.824 59.8001 125.172 60.1834C125.521 60.5666 125.695 61.1066 125.695 61.8208C125.695 62.2041 125.643 63.197 125.538 64.7822C125.433 66.3674 125.364 68.0048 125.346 69.712C124.824 69.6945 124.353 69.6945 123.918 69.6945C123.5 69.6945 123.012 69.6945 122.455 69.712C122.542 68.8932 122.611 67.9351 122.664 66.8551L122.803 64.3118C122.542 64.486 122.35 64.608 122.211 64.6777C122.071 64.7473 121.915 64.817 121.758 64.8693C121.584 64.9215 121.288 65.0086 120.852 65.1306C120.417 65.2525 120.086 65.357 119.824 65.4441C119.563 65.5312 119.337 65.6357 119.128 65.7403C118.919 65.8448 118.744 65.9841 118.605 66.1235C118.466 66.2629 118.361 66.4022 118.291 66.559C118.222 66.7158 118.187 66.8725 118.187 67.0467C118.187 67.3255 118.274 67.5868 118.431 67.7784C118.588 67.97 118.814 68.1268 119.058 68.2139C119.302 68.301 119.598 68.3358 119.946 68.3358C120.155 68.3358 120.399 68.3184 120.643 68.2835C120.887 68.2487 121.218 68.1616 121.619 68.0222C121.479 68.4055 121.305 68.9803 121.113 69.7642C120.626 69.8513 120.242 69.9036 119.964 69.921C119.685 69.9384 119.406 69.9558 119.162 69.9558C118.309 69.9558 117.595 69.8339 117.055 69.6074C116.515 69.381 116.097 69.0152 115.835 68.51C115.574 68.0048 115.435 67.4997 115.435 66.9945C115.435 66.6983 115.487 66.4196 115.591 66.1235C115.696 65.8274 115.835 65.5835 116.044 65.3396C116.253 65.0957 116.497 64.8693 116.811 64.6428C117.124 64.4164 117.577 64.2073 118.169 63.9983C118.762 63.7893 119.546 63.5802 120.521 63.3712C120.782 63.3189 121.044 63.2492 121.322 63.1796C121.601 63.1099 121.828 63.0228 121.984 62.9531C122.141 62.8834 122.298 62.7789 122.42 62.657C122.542 62.535 122.629 62.4131 122.699 62.2912C122.768 62.1692 122.786 62.0299 122.786 61.8905C122.786 61.6292 122.699 61.4028 122.524 61.2111C122.35 61.0195 122.124 60.8976 121.845 60.8279C121.566 60.7582 121.27 60.7234 120.939 60.7234C119.72 60.7234 118.344 61.0195 116.846 61.6118Z" fill="#29313D" fill-opacity="0.8"/>
<path d="M127.663 74.398C127.837 72.4993 127.994 70.0431 128.116 67.0121C128.255 63.9985 128.325 61.5423 128.325 59.6609C129.614 59.4345 130.624 59.2777 131.321 59.208C132.035 59.1384 132.732 59.1035 133.429 59.1035C134.352 59.1035 135.188 59.208 135.955 59.4345C136.721 59.6435 137.331 60.0093 137.784 60.5319C138.237 61.0545 138.585 61.6294 138.812 62.3087C139.038 62.9881 139.143 63.6849 139.143 64.4165C139.143 65.1656 139.038 65.8798 138.829 66.5591C138.62 67.2385 138.289 67.8656 137.854 68.4056C137.418 68.9457 136.913 69.3463 136.338 69.6076C135.763 69.8515 135.136 69.9734 134.457 69.9734C134.056 69.9734 133.655 69.9212 133.272 69.8341C132.889 69.747 132.541 69.6076 132.244 69.4508C131.948 69.294 131.704 69.1373 131.513 68.9805C131.321 68.8237 131.077 68.5798 130.781 68.2663L130.624 72.7083L130.642 73.3877C130.642 73.4748 130.624 73.8232 130.624 74.4154C129.997 74.4154 129.51 74.398 129.179 74.398H127.663ZM131.147 61.5423C131.095 61.9081 131.06 62.2216 131.043 62.4829L130.973 63.6152C130.938 64.103 130.938 64.4688 130.938 64.6952C130.938 65.1133 130.973 65.514 131.06 65.8798C131.147 66.263 131.321 66.6114 131.565 66.925C131.809 67.2385 132.123 67.4824 132.471 67.6566C132.819 67.8308 133.185 67.9005 133.551 67.9005C134.074 67.9005 134.544 67.7611 134.962 67.465C135.38 67.1688 135.711 66.7333 135.955 66.1585C136.199 65.5836 136.303 64.974 136.303 64.3294C136.303 63.6152 136.181 63.0055 135.92 62.5178C135.659 62.03 135.328 61.6642 134.892 61.4378C134.457 61.2113 133.969 61.1068 133.429 61.1068C132.75 61.1416 131.966 61.2636 131.147 61.5423Z" fill="#29313D" fill-opacity="0.8"/>
<path d="M140.902 69.7123L141.111 67.0645L141.338 61.9779L141.442 57.623C141.46 56.8391 141.46 56.2294 141.46 55.7939C142.174 55.8114 142.679 55.8114 142.975 55.8114C143.324 55.8114 143.794 55.8114 144.369 55.7939L144.16 59.1037L143.916 64.3993L143.811 68.3536L143.794 69.7297C143.184 69.7123 142.714 69.7123 142.366 69.7123C142 69.6949 141.512 69.7123 140.902 69.7123ZM144.16 63.9115L146.233 61.3857C146.407 61.1766 146.616 60.8979 146.86 60.5844C147.104 60.2708 147.417 59.8527 147.801 59.3476C148.515 59.365 149.02 59.365 149.351 59.365C149.804 59.365 150.361 59.365 151.058 59.3476L147.696 63.1973L147.086 63.9289C147.592 64.7128 148.968 66.6464 151.232 69.7297C150.623 69.7123 150.1 69.7123 149.664 69.7123C149.229 69.7123 148.689 69.7123 148.044 69.7297C147.644 69.0852 147.33 68.5626 147.086 68.1794C146.842 67.7961 146.616 67.4477 146.39 67.1516L144.648 64.678C144.595 64.5909 144.421 64.3296 144.16 63.9115Z" fill="#29313D" fill-opacity="0.8"/>
<path d="M152.382 69.7122C152.486 68.6844 152.556 67.8308 152.591 67.1515C152.661 66.0715 152.713 64.7998 152.765 63.3888C152.817 61.9778 152.852 60.6191 152.87 59.33C153.532 59.3474 154.037 59.3474 154.368 59.3474C154.664 59.3474 155.169 59.3474 155.848 59.33C155.761 60.5146 155.674 61.6468 155.622 62.7269C155.587 63.8069 155.535 65.0263 155.517 66.4198C155.5 67.8134 155.483 68.9109 155.483 69.7122C154.855 69.6948 154.368 69.6948 153.984 69.6948C153.636 69.6948 153.096 69.7122 152.382 69.7122ZM152.939 57.5532C152.974 56.8564 152.974 56.3164 152.974 55.9332V55.6196C153.601 55.637 154.089 55.637 154.49 55.637C155.012 55.637 155.517 55.637 155.97 55.6196C155.953 55.7938 155.935 55.9854 155.935 56.1945L155.883 57.5532C155.361 57.5358 154.89 57.5358 154.455 57.5358C154.019 57.5358 153.514 57.5532 152.939 57.5532Z" fill="#29313D" fill-opacity="0.8"/>
<path d="M168.495 69.7122C167.903 69.6948 167.433 69.6948 167.119 69.6948C166.718 69.6948 166.265 69.6948 165.743 69.7122L165.76 68.0225C165.569 68.3012 165.394 68.5451 165.255 68.7193C165.116 68.8935 164.924 69.0677 164.698 69.2245C164.471 69.3812 164.21 69.5206 163.949 69.6251C163.687 69.7296 163.374 69.7993 163.008 69.869C162.66 69.9387 162.294 69.9735 161.893 69.9735C161.127 69.9735 160.465 69.869 159.907 69.6425C159.35 69.4161 158.897 69.0851 158.566 68.6322C158.235 68.1793 158.078 67.5348 158.078 66.6986V66.4896L158.235 63.8592L158.392 60.3927C158.392 60.114 158.409 59.7656 158.409 59.3475C159.054 59.3649 159.559 59.3649 159.925 59.3649C160.308 59.3649 160.778 59.3649 161.336 59.3475L161.005 63.9986C160.987 64.3644 160.97 64.6605 160.952 64.9044C160.935 65.1483 160.935 65.3399 160.935 65.4444C160.935 65.9321 161.005 66.3328 161.161 66.6638C161.318 66.9947 161.562 67.2386 161.928 67.3954C162.294 67.5696 162.677 67.6567 163.095 67.6567C163.496 67.6567 163.861 67.587 164.21 67.4302C164.523 67.2909 164.802 67.0993 165.029 66.8554C165.255 66.6115 165.447 66.2805 165.603 65.8625C165.725 65.5663 165.812 65.1483 165.865 64.6257C165.917 64.2599 165.952 63.6153 166.004 62.6921C166.056 61.5946 166.091 60.4624 166.126 59.3301C166.805 59.3475 167.311 59.3475 167.676 59.3475C168.077 59.3475 168.53 59.3475 169.035 59.3301C168.948 60.3056 168.861 61.525 168.774 62.9708C168.687 64.4166 168.617 65.636 168.6 66.5767C168.53 67.5522 168.513 68.5799 168.495 69.7122Z" fill="#29313D" fill-opacity="0.8"/>
</g>
<defs>
<clipPath id="clip0_179_1043">
<rect width="140" height="23.7324" fill="white" transform="translate(1235 53)"/>
</clipPath>
<clipPath id="clip1_179_1043">
<rect width="128" height="26.3244" fill="white" transform="translate(1001 52)"/>
</clipPath>
<clipPath id="clip2_179_1043">
<rect width="110" height="29.1917" fill="white" transform="translate(770 50)"/>
</clipPath>
<clipPath id="clip3_179_1043">
<rect width="110" height="25.4949" fill="white" transform="translate(530 52)"/>
</clipPath>
<clipPath id="clip4_179_1043">
<rect width="128" height="36.2406" fill="white" transform="translate(281 47)"/>
</clipPath>
<clipPath id="clip5_179_1043">
<rect width="128" height="32.0174" fill="white" transform="translate(41 49)"/>
</clipPath>
</defs>
</svg>
